<?xml version="1.0" encoding="utf-8"?>
<!-- Generator: Adobe Illustrator 21.1.0, SVG Export Plug-In . SVG Version: 6.00 Build 0)  -->
<svg version="1.1" id="圖層_1" xmlns="http://www.w3.org/2000/svg" xmlns:xlink="http://www.w3.org/1999/xlink" x="0px" y="0px"
	 viewBox="0 0 600 200" style="enable-background:new 0 0 600 200;" xml:space="preserve">
<style type="text/css">
	.st0{fill:url(#SVGID_1_);}
	.st1{fill:url(#SVGID_2_);}
	.st2{fill:url(#SVGID_3_);}
	.st3{fill:url(#SVGID_4_);}
	.st4{fill:url(#SVGID_5_);}
	.st5{fill:url(#SVGID_6_);}
	.st6{fill:url(#SVGID_7_);}
	.st7{fill:url(#SVGID_8_);}
	.st8{fill:url(#SVGID_9_);}
	.st9{fill:url(#SVGID_10_);}
	.st10{fill:url(#SVGID_11_);}
	.st11{fill:url(#SVGID_12_);}
	.st12{fill:url(#SVGID_13_);}
	.st13{fill:url(#SVGID_14_);}
	.st14{fill:url(#SVGID_15_);}
	.st15{fill:url(#SVGID_16_);}
	.st16{fill:url(#SVGID_17_);}
	.st17{fill:url(#SVGID_18_);}
</style>
<g id="_x33_D_Color_Logo_-_Horizontal_Lockup__x28_RGB_x29_">
	<g id="Logotype">
		<path d="M292.7,140.4l-10.2-17.5h13.1l5.1,10.2l5-10.2h11.8L308,140l11.1,19H306l-6.2-11.9l-6.2,11.9h-11.8L292.7,140.4z"/>
		<path d="M329.1,143.6l-11.8-20.7h12.5l5.5,11.3l5.6-11.3h11l-11.3,20.7v15.5H329L329.1,143.6L329.1,143.6z"/>
		<path d="M350.1,157.8l14.5-26.3h-12.5v-8.6h28.6v1.2l-14.4,26.3h13.5v8.6h-29.7V157.8z"/>
		<path d="M391.3,122.9h10.3c6.9,0,12.7,3,12.7,10.6v0.2c0,7.7-5.8,10.7-12.7,10.7h-5.9v14.7h-4.4V122.9z M401.9,140.9
			c5.2,0,8-2.5,8-7.2v-0.2c0-5.1-3-7-8-7h-6.2v14.4H401.9z"/>
		<path d="M418.8,122.9h10.9c6.9,0,12.7,2.8,12.7,10.1v0.2c0,6-4,8.9-9,9.9l11.1,16h-4.9l-10.8-15.7h-5.6v15.7h-4.4L418.8,122.9
			L418.8,122.9z M430,139.8c5.2,0,8-2.2,8-6.7v-0.2c0-4.9-3-6.5-8-6.5h-6.8v13.4H430z"/>
		<path d="M448.9,122.9h4.4V159h-4.4V122.9z"/>
		<path d="M460.6,122.9h5.7l17.7,29.9v-29.9h4.2V159h-5.1l-18.3-31v31h-4.2L460.6,122.9L460.6,122.9z"/>
		<path d="M502.8,126.5h-10.6v-3.6h25.5v3.6h-10.6V159h-4.4v-32.5H502.8z"/>
		<path d="M522,122.9h4.4V159H522V122.9z"/>
		<path d="M533.8,122.9h5.7l17.7,29.9v-29.9h4.2V159h-5.1L538,128v31h-4.2L533.8,122.9L533.8,122.9z"/>
		<path d="M566.7,141.2v-0.4c0-10.6,7.2-18.4,17.6-18.4c7.2,0,13.6,3.3,14.8,11.5h-4.4c-1-5.8-5-8-10.2-8c-8.3,0-13.1,6.1-13.1,14.9
			v0.4c0,8.9,4.5,14.8,13,14.8c7.9,0,11.3-5.1,11.4-11.5h-10.6v-3.6H600v2.7c0,10.5-6.4,16-15.7,16
			C573.1,159.5,566.7,151.8,566.7,141.2z"/>
	</g>
	<g id="Symbol">
		
			<linearGradient id="SVGID_1_" gradientUnits="userSpaceOnUse" x1="-12.6987" y1="146.4245" x2="121.8346" y2="146.4245" gradientTransform="matrix(1 0 0 -1 0 200)">
			<stop  offset="0" style="stop-color:#FA283A"/>
			<stop  offset="0.25" style="stop-color:#FF5F78"/>
			<stop  offset="0.3199" style="stop-color:#FF6A86"/>
			<stop  offset="0.4934" style="stop-color:#FF82A3"/>
			<stop  offset="0.6661" style="stop-color:#FF93B7"/>
			<stop  offset="0.836" style="stop-color:#FF9DC4"/>
			<stop  offset="1" style="stop-color:#FFA0C8"/>
		</linearGradient>
		<path class="st0" d="M0,40.5v37.1c0,0,26.9-13,45.7-19.4c38.1-13.1,76.4-4.2,76.4-4.2s-24-14.5-49.7-21.3
			c-12-3.2-25.9-4.3-40.1-1.7C22.7,32.7,6.6,37.7,0,40.5z"/>
		
			<linearGradient id="SVGID_2_" gradientUnits="userSpaceOnUse" x1="-654.5883" y1="477.2123" x2="-555.9006" y2="514.3256" gradientTransform="matrix(1 0 0 -1 668.0005 562.187)">
			<stop  offset="0" style="stop-color:#230000"/>
			<stop  offset="0.2077" style="stop-color:#270001"/>
			<stop  offset="0.4123" style="stop-color:#330002"/>
			<stop  offset="0.6158" style="stop-color:#470006"/>
			<stop  offset="0.8173" style="stop-color:#62000A"/>
			<stop  offset="1" style="stop-color:#82000F"/>
		</linearGradient>
		<path class="st1" d="M67.6,79.4c4.9-2.9,9.4-5.4,13.1-7.3c26.1-13.4,41.4-18.2,41.4-18.2S83.8,45,45.7,58.1
			c-2.5,0.9-5.1,1.8-7.8,2.9C20,68,0,77.6,0,77.6l0,0C7.1,77.1,39.9,76,67.6,79.4z"/>
		
			<linearGradient id="SVGID_3_" gradientUnits="userSpaceOnUse" x1="-363.206" y1="343.9078" x2="-156.8671" y2="244.6047" gradientTransform="matrix(1 0 0 -1 668.0005 562.187)">
			<stop  offset="0" style="stop-color:#230000"/>
			<stop  offset="0.2077" style="stop-color:#270001"/>
			<stop  offset="0.4123" style="stop-color:#330002"/>
			<stop  offset="0.6158" style="stop-color:#470006"/>
			<stop  offset="0.8173" style="stop-color:#62000A"/>
			<stop  offset="1" style="stop-color:#82000F"/>
		</linearGradient>
		<path class="st2" d="M0,77.6C16.1,82,30.3,91.3,38.4,97.4c4.5-2.8,8.9-5.6,13.2-8.3C30.6,83.8,9.3,78.8,0,77.6z"/>
		
			<linearGradient id="SVGID_4_" gradientUnits="userSpaceOnUse" x1="245.2422" y1="116.9368" x2="-1.4632" y2="116.9368" gradientTransform="matrix(1 0 0 -1 0 200)">
			<stop  offset="0" style="stop-color:#230000"/>
			<stop  offset="0.2077" style="stop-color:#270001"/>
			<stop  offset="0.4123" style="stop-color:#330002"/>
			<stop  offset="0.6158" style="stop-color:#470006"/>
			<stop  offset="0.8173" style="stop-color:#62000A"/>
			<stop  offset="1" style="stop-color:#82000F"/>
		</linearGradient>
		<path class="st3" d="M0.1,77.6c9.3,1.2,30.5,6.2,51.5,11.5c-0.2,0.1,10.9-6.7,16-9.7C39.9,76,7.1,77.1,0,77.6
			C0.1,77.6,0.1,77.6,0.1,77.6L0.1,77.6z"/>
		
			<linearGradient id="SVGID_5_" gradientUnits="userSpaceOnUse" x1="126.8311" y1="53.5755" x2="243.4267" y2="53.5755" gradientTransform="matrix(1 0 0 -1 0 200)">
			<stop  offset="0" style="stop-color:#CF0000"/>
			<stop  offset="0.5" style="stop-color:#BE0000"/>
			<stop  offset="1" style="stop-color:#FF2C3E"/>
		</linearGradient>
		<path class="st4" d="M244.2,159.5v-37.1c0,0-26.9,13-45.7,19.4c-38.1,13.1-76.4,4.2-76.4,4.2s24,14.5,49.7,21.3
			c12,3.2,25.9,4.3,40.1,1.7C221.6,167.3,237.7,162.3,244.2,159.5z"/>
		
			<linearGradient id="SVGID_6_" gradientUnits="userSpaceOnUse" x1="117.654" y1="65.2733" x2="246.7443" y2="65.2733" gradientTransform="matrix(1 0 0 -1 0 200)">
			<stop  offset="0.2" style="stop-color:#4B0005"/>
			<stop  offset="1" style="stop-color:#960014"/>
		</linearGradient>
		<path class="st5" d="M176.6,120.5c-4.9,2.9-9.4,5.4-13.1,7.3c-26.1,13.4-41.4,18.2-41.4,18.2s38.3,8.9,76.4-4.2
			c2.5-0.9,5.1-1.8,7.8-2.9c17.9-7,37.9-16.6,37.9-16.6l0,0C237.2,122.9,204.4,123.9,176.6,120.5z"/>
		
			<linearGradient id="SVGID_7_" gradientUnits="userSpaceOnUse" x1="-77.6684" y1="207.375" x2="252.5793" y2="71.2471" gradientTransform="matrix(1 0 0 -1 0 200)">
			<stop  offset="0" style="stop-color:#230000"/>
			<stop  offset="0.2077" style="stop-color:#270001"/>
			<stop  offset="0.4123" style="stop-color:#330002"/>
			<stop  offset="0.6158" style="stop-color:#470006"/>
			<stop  offset="0.8173" style="stop-color:#62000A"/>
			<stop  offset="1" style="stop-color:#82000F"/>
		</linearGradient>
		<path class="st6" d="M244.2,122.4c-16.1-4.4-30.3-13.7-38.4-19.8c-4.5,2.8-8.9,5.6-13.2,8.3C213.7,116.2,235,121.2,244.2,122.4z"
			/>
		
			<linearGradient id="SVGID_8_" gradientUnits="userSpaceOnUse" x1="131.7147" y1="83.1632" x2="285.082" y2="83.1632" gradientTransform="matrix(1 0 0 -1 0 200)">
			<stop  offset="0" style="stop-color:#230000"/>
			<stop  offset="0.2077" style="stop-color:#270001"/>
			<stop  offset="0.4123" style="stop-color:#330002"/>
			<stop  offset="0.6158" style="stop-color:#470006"/>
			<stop  offset="0.8173" style="stop-color:#62000A"/>
			<stop  offset="1" style="stop-color:#82000F"/>
		</linearGradient>
		<path class="st7" d="M244.1,122.3c-9.3-1.2-30.5-6.2-51.5-11.5c0.2-0.1-10.9,6.7-16,9.7c27.7,3.4,60.5,2.3,67.6,1.8
			C244.2,122.3,244.2,122.3,244.1,122.3L244.1,122.3z"/>
		
			<linearGradient id="SVGID_9_" gradientUnits="userSpaceOnUse" x1="0.6759" y1="59.6971" x2="127.6665" y2="140.2872" gradientTransform="matrix(1 0 0 -1 0 200)">
			<stop  offset="0" style="stop-color:#FA283A"/>
			<stop  offset="0.25" style="stop-color:#FF5F78"/>
			<stop  offset="0.3199" style="stop-color:#FF6A86"/>
			<stop  offset="0.4934" style="stop-color:#FF82A3"/>
			<stop  offset="0.6661" style="stop-color:#FF93B7"/>
			<stop  offset="0.836" style="stop-color:#FF9DC4"/>
			<stop  offset="1" style="stop-color:#FFA0C8"/>
		</linearGradient>
		<path class="st8" d="M1.3,158.8c5.2-3.8,26.5-19.6,46.9-38.9c0,0,26.1-24.5,36.1-33.9c0,0,20.2-18.5,33.5-28.9
			c0.1-0.1,0.2-0.2,0.3-0.2c0.1-0.1,0.3-0.2,0.4-0.3c0.4-0.3,0.7-0.5,1.1-0.8c0.8-0.6,1.7-1.2,2.5-1.8c-0.4,0.1-15.6,5-41.4,18.2
			c-19,9.7-57.1,34.7-80.7,50.3v37.1c0,0,0,0,0.1-0.1C0.4,159.3,1.2,158.8,1.3,158.8z"/>
		
			<linearGradient id="SVGID_10_" gradientUnits="userSpaceOnUse" x1="233.365" y1="133.1974" x2="118.5966" y2="64.8247" gradientTransform="matrix(1 0 0 -1 0 200)">
			<stop  offset="0" style="stop-color:#CF0000"/>
			<stop  offset="0.5" style="stop-color:#BE0000"/>
			<stop  offset="1" style="stop-color:#FF2C3E"/>
		</linearGradient>
		<path class="st9" d="M243,41.2c-5.2,3.8-26.5,19.6-46.9,38.9c0,0-26.1,24.5-36.1,33.9c0,0-20.2,18.5-33.5,28.9
			c-0.1,0.1-0.2,0.2-0.3,0.2c-0.1,0.1-0.3,0.2-0.4,0.3c-0.4,0.3-0.7,0.5-1.1,0.8c-0.8,0.6-1.7,1.2-2.5,1.8c0.4-0.1,15.6-5,41.4-18.2
			c19-9.7,57.1-34.7,80.7-50.3V40.3c0,0,0,0-0.1,0.1C243.8,40.6,243.1,41.2,243,41.2z"/>
		
			<linearGradient id="SVGID_11_" gradientUnits="userSpaceOnUse" x1="143.1108" y1="89.55" x2="84.4335" y2="89.55" gradientTransform="matrix(1 0 0 -1 0 200)">
			<stop  offset="0" style="stop-color:#230000"/>
			<stop  offset="0.2077" style="stop-color:#270001"/>
			<stop  offset="0.4123" style="stop-color:#330002"/>
			<stop  offset="0.6158" style="stop-color:#470006"/>
			<stop  offset="0.8173" style="stop-color:#62000A"/>
			<stop  offset="1" style="stop-color:#82000F"/>
		</linearGradient>
		<path class="st10" d="M122.1,109.2c-0.1,0-10.7-3.4-16.7-5.7c-5.6,4.2-12.1,9.1-18.8,13.9C100.3,114.9,114.9,111.2,122.1,109.2z"
			/>
		
			<linearGradient id="SVGID_12_" gradientUnits="userSpaceOnUse" x1="242.4992" y1="95.4" x2="95.746" y2="95.4" gradientTransform="matrix(1 0 0 -1 0 200)">
			<stop  offset="0" style="stop-color:#230000"/>
			<stop  offset="0.2077" style="stop-color:#270001"/>
			<stop  offset="0.4123" style="stop-color:#330002"/>
			<stop  offset="0.6158" style="stop-color:#470006"/>
			<stop  offset="0.8173" style="stop-color:#62000A"/>
			<stop  offset="1" style="stop-color:#82000F"/>
		</linearGradient>
		<path class="st11" d="M122.1,109.2L110,100c0,0-2.7,2.1-4.6,3.5l0,0C111.5,105.8,122.1,109.2,122.1,109.2z"/>
		
			<linearGradient id="SVGID_13_" gradientUnits="userSpaceOnUse" x1="2.094" y1="52.1741" x2="231.6536" y2="182.8277" gradientTransform="matrix(1 0 0 -1 0 200)">
			<stop  offset="0" style="stop-color:#B40000"/>
			<stop  offset="0.35" style="stop-color:#FA283C"/>
			<stop  offset="0.55" style="stop-color:#FF5F78"/>
			<stop  offset="0.592" style="stop-color:#FF6A86"/>
			<stop  offset="0.6961" style="stop-color:#FF82A3"/>
			<stop  offset="0.7997" style="stop-color:#FF93B7"/>
			<stop  offset="0.9016" style="stop-color:#FF9DC4"/>
			<stop  offset="1" style="stop-color:#FFA0C8"/>
		</linearGradient>
		<path class="st12" d="M228.9,42.9c-1.7-0.5-3.9-1.4-6.3-2.7c-30.8-15.9-59.5-16.7-104,16.5c-0.3,0.2-0.5,0.4-0.8,0.6
			c-13.3,10.3-33.5,28.9-33.5,28.9c-10,9.3-36.1,33.9-36.1,33.9c-20.4,19.2-41.7,35-46.9,38.9c-0.1,0.1-1.1,0.8-1.2,0.9
			c0,0,3.5-2.6,7.1-3.2c21.6-3.3,51.8-15.9,114.3-65.2c3.3-2.6,34.6-26.3,56.1-36c21.4-9.7,36.6-12.4,54.2-11.7
			C230.8,43.4,229.8,43.2,228.9,42.9z"/>
		
			<linearGradient id="SVGID_14_" gradientUnits="userSpaceOnUse" x1="98.5374" y1="81.8861" x2="3.299" y2="31.4179" gradientTransform="matrix(1 0 0 -1 0 200)">
			<stop  offset="0" style="stop-color:#230000"/>
			<stop  offset="0.2077" style="stop-color:#270001"/>
			<stop  offset="0.4123" style="stop-color:#330002"/>
			<stop  offset="0.6158" style="stop-color:#470006"/>
			<stop  offset="0.8173" style="stop-color:#62000A"/>
			<stop  offset="1" style="stop-color:#82000F"/>
		</linearGradient>
		<path class="st13" d="M66.7,144.7c20.5-9.3,49.9-31.2,55.5-35.5l0,0c-7.2,2.1-21.8,5.7-35.5,8.3l0,0c-39.7,27.9-62.3,36.4-79.4,39
			c0.3,0,1.1-0.2,2.8-0.2c1.3,0,1.7,0.1,2.5,0.2c0.1,0,0.1,0,0.2,0c0.5,0,1,0,1.4,0C31.1,156.9,46,154,66.7,144.7z"/>
		
			<linearGradient id="SVGID_15_" gradientUnits="userSpaceOnUse" x1="-59.3808" y1="192.0153" x2="164.6504" y2="103.5015" gradientTransform="matrix(1 0 0 -1 0 200)">
			<stop  offset="0" style="stop-color:#230000"/>
			<stop  offset="0.2077" style="stop-color:#270001"/>
			<stop  offset="0.4123" style="stop-color:#330002"/>
			<stop  offset="0.6158" style="stop-color:#470006"/>
			<stop  offset="0.8173" style="stop-color:#62000A"/>
			<stop  offset="1" style="stop-color:#82000F"/>
		</linearGradient>
		<path class="st14" d="M122.1,90.8c0.1,0,10.7,3.4,16.7,5.7c5.6-4.2,12.1-9.1,18.8-13.9C143.9,85.1,129.3,88.7,122.1,90.8z"/>
		
			<linearGradient id="SVGID_16_" gradientUnits="userSpaceOnUse" x1="128.2554" y1="104.6" x2="243.0196" y2="104.6" gradientTransform="matrix(1 0 0 -1 0 200)">
			<stop  offset="0" style="stop-color:#230000"/>
			<stop  offset="0.2077" style="stop-color:#270001"/>
			<stop  offset="0.4123" style="stop-color:#330002"/>
			<stop  offset="0.6158" style="stop-color:#470006"/>
			<stop  offset="0.8173" style="stop-color:#62000A"/>
			<stop  offset="1" style="stop-color:#82000F"/>
		</linearGradient>
		<path class="st15" d="M122.1,90.8l12.1,9.2c0,0,2.7-2.1,4.6-3.5l0,0C132.8,94.2,122.2,90.8,122.1,90.8z"/>
		
			<linearGradient id="SVGID_17_" gradientUnits="userSpaceOnUse" x1="5.1986" y1="21.8151" x2="251.8284" y2="141.4672" gradientTransform="matrix(1 0 0 -1 0 200)">
			<stop  offset="0" style="stop-color:#B40000"/>
			<stop  offset="0.1092" style="stop-color:#B70203"/>
			<stop  offset="0.1968" style="stop-color:#C1080B"/>
			<stop  offset="0.277" style="stop-color:#D2111A"/>
			<stop  offset="0.3523" style="stop-color:#EA1F2E"/>
			<stop  offset="0.3932" style="stop-color:#FA283C"/>
			<stop  offset="0.7192" style="stop-color:#FFA0C8"/>
			<stop  offset="1" style="stop-color:#FF5F78"/>
		</linearGradient>
		<path class="st16" d="M15.4,157.1c1.7,0.5,3.9,1.4,6.3,2.7c30.8,15.9,59.5,16.7,104-16.5c0.3-0.2,0.5-0.4,0.8-0.6
			c13.3-10.3,33.5-28.9,33.5-28.9c10-9.3,36.1-33.9,36.1-33.9c20.4-19.2,41.7-35,46.9-38.9c0.1-0.1,1.1-0.8,1.2-0.9
			c0,0-3.5,2.6-7.1,3.2c-21.6,3.3-51.8,15.9-114.3,65.2c-3.3,2.6-34.6,26.3-56.1,36c-21.4,9.7-36.6,12.4-54.2,11.7
			C13.5,156.6,14.5,156.8,15.4,157.1z"/>
		
			<linearGradient id="SVGID_18_" gradientUnits="userSpaceOnUse" x1="121.6187" y1="132.8679" x2="240.4568" y2="132.8679" gradientTransform="matrix(1 0 0 -1 0 200)">
			<stop  offset="0" style="stop-color:#230000"/>
			<stop  offset="0.2077" style="stop-color:#270001"/>
			<stop  offset="0.4123" style="stop-color:#330002"/>
			<stop  offset="0.6158" style="stop-color:#470006"/>
			<stop  offset="0.8173" style="stop-color:#62000A"/>
			<stop  offset="1" style="stop-color:#82000F"/>
		</linearGradient>
		<path class="st17" d="M177.6,55.3c-20.5,9.3-49.9,31.2-55.5,35.5l0,0c7.2-2.1,21.8-5.7,35.5-8.3l0,0c39.7-27.9,62.3-36.4,79.4-39
			c-0.3,0-1.1,0.2-2.8,0.2c-1.3,0-1.7-0.1-2.5-0.2c-0.1,0-0.1,0-0.2,0c-0.5,0-1,0-1.4,0C213.2,43.1,198.3,46,177.6,55.3z"/>
	</g>
</g>
</svg>
